<?xml version="1.0" encoding="utf-8"?>
<!-- Generator: Adobe Illustrator 21.0.2, SVG Export Plug-In . SVG Version: 6.00 Build 0)  -->
<svg version="1.0" id="Layer_1" xmlns="http://www.w3.org/2000/svg" xmlns:xlink="http://www.w3.org/1999/xlink" x="0px" y="0px"
	 viewBox="0 0 128 128" style="enable-background:new 0 0 128 128;" xml:space="preserve">
<style type="text/css">
	.st0{fill:#CAE100;}
	.st1{fill:#FFFFFF;}
</style>
<g>
	<path class="st0" d="M127.5,62.1l-8.2-14.2c-0.7-1.3-2.5-1.3-3.3,0l-8.2,14.2c-0.7,1.2-0.7,2.6,0,3.8l8.2,14.2
		c0.7,1.3,2.5,1.3,3.3,0l8.2-14.2C128.2,64.7,128.2,63.3,127.5,62.1z"/>
</g>
<path class="st1" d="M66.2,50.8H47.5c-1.5,0-2.4,1.6-1.6,2.8l3.8,6.5c3.4,5.9,9.7,9.5,16.5,9.5h18.7c1.5,0,2.4-1.6,1.6-2.8l-3.8-6.5
	C79.3,54.4,73,50.8,66.2,50.8z"/>
<path class="st1" d="M94.2,42.3c0.7,1.3,2.5,1.3,3.3,0l8.2-14.2c0.7-1.2,0.7-2.6,0-3.8l-5.5-9.4c-2.7-4.7-7.7-7.6-13.1-7.6H1.9
	c-1.5,0-2.4,1.6-1.6,2.8l3.8,6.6c3.4,5.8,9.6,9.4,16.4,9.4h13l-12.3,3.5c-2.8,0.8-5.3,2.7-6.7,5.2L2,56.4c-2.7,4.7-2.7,10.4,0,15.1
	l24,41.6c2.7,4.7,7.7,7.6,13.1,7.6h48c5.4,0,10.4-2.9,13.1-7.6l5.5-9.4c0.7-1.2,0.7-2.6,0-3.8l-8.2-14.2c-0.7-1.3-2.5-1.3-3.3,0
	L87.1,98c-1.4,2.3-3.8,3.8-6.5,3.8H45.7c-2.7,0-5.2-1.4-6.5-3.8L21.7,67.8c-1.4-2.3-1.4-5.2,0-7.6L39.1,30c1.4-2.3,3.8-3.8,6.5-3.8
	h34.9c2.7,0,5.2,1.4,6.5,3.8L94.2,42.3z"/>
</svg>
