<svg xmlns="http://www.w3.org/2000/svg" width="41" height="36" viewBox="0 0 41 36">
    <g fill="#F6BE00" fill-rule="evenodd">
        <path d="M21.021 13.8a6.054 6.054 0 0 1 5.243 3.027L27.46 18.9a.6.6 0 0 1-.52.9h-5.943a6.053 6.053 0 0 1-5.242-3.028L14.559 14.7a.6.6 0 0 1 .52-.9h5.942zm8.894-2.7l-2.252-3.9A2.4 2.4 0 0 0 25.584 6H14.5a2.4 2.4 0 0 0-2.079 1.2l-5.542 9.6a2.4 2.4 0 0 0 0 2.4l5.542 9.6a2.4 2.4 0 0 0 2.078 1.2h11.086a2.4 2.4 0 0 0 2.078-1.2l2.252-3.9a.6.6 0 0 1 1.039 0l2.597 4.5c.215.37.215.829 0 1.2l-1.731 3a4.801 4.801 0 0 1-4.157 2.4H12.421a4.8 4.8 0 0 1-4.157-2.4L.643 20.4a4.8 4.8 0 0 1 0-4.8l3.946-6.835a3.603 3.603 0 0 1 2.137-1.664L10.619 6H6.49a5.999 5.999 0 0 1-5.196-3L.08.9a.6.6 0 0 1 .52-.9h27.062a4.8 4.8 0 0 1 4.157 2.4l1.731 3c.215.37.215.829 0 1.2l-2.597 4.5a.6.6 0 0 1-1.04 0zM40.48 17.4l-2.598-4.5a.6.6 0 0 0-1.04 0l-2.598 4.5c-.213.37-.213.829 0 1.2l2.599 4.5a.6.6 0 0 0 1.039 0l2.598-4.5a1.2 1.2 0 0 0 0-1.2"/>
    </g>
</svg>
